<?xml version="1.0" encoding="UTF-8" standalone="no"?>
<svg
   width="492.07031pt"
   height="491.30283pt"
   version="1.1"
   viewBox="0 0 492.07031 491.30283"
   id="svg55"
   sodipodi:docname="logo.svg"
   inkscape:export-filename="C:\Users\fortk\Downloads\logo.png"
   inkscape:export-xdpi="96"
   inkscape:export-ydpi="96"
   inkscape:version="1.1.2 (b8e25be833, 2022-02-05)"
   xmlns:inkscape="http://www.inkscape.org/namespaces/inkscape"
   xmlns:sodipodi="http://sodipodi.sourceforge.net/DTD/sodipodi-0.dtd"
   xmlns="http://www.w3.org/2000/svg"
   xmlns:svg="http://www.w3.org/2000/svg">
  <sodipodi:namedview
     id="namedview57"
     pagecolor="#ffffff"
     bordercolor="#666666"
     borderopacity="1.0"
     inkscape:pageshadow="2"
     inkscape:pageopacity="0.0"
     inkscape:pagecheckerboard="0"
     inkscape:document-units="pt"
     showgrid="false"
     fit-margin-top="0"
     fit-margin-left="0"
     fit-margin-right="0"
     fit-margin-bottom="0"
     inkscape:zoom="0.93535714"
     inkscape:cx="328.75143"
     inkscape:cy="421.22948"
     inkscape:window-width="2560"
     inkscape:window-height="1377"
     inkscape:window-x="-8"
     inkscape:window-y="-8"
     inkscape:window-maximized="1"
     inkscape:current-layer="svg55" />
  <defs
     id="defs23">
    <symbol
       id="g"
       overflow="visible">
      <path
         d="m 39.078,-2.3281 c -2.0117,1.043 -4.1094,1.8281 -6.2969,2.3594 -2.1875,0.5313 -4.4648,0.79688 -6.8281,0.79688 -7.0859,0 -12.699,-1.9766 -16.844,-5.9375 -4.1367,-3.957 -6.2031,-9.3281 -6.2031,-16.109 0,-6.7891 2.0664,-12.164 6.2031,-16.125 4.1445,-3.9688 9.7578,-5.9531 16.844,-5.9531 2.3633,0 4.6406,0.26562 6.8281,0.79688 2.1875,0.53126 4.2852,1.3242 6.2969,2.375 v 8.7969 c -2.0312,-1.3828 -4.0391,-2.3984 -6.0156,-3.0469 -1.9688,-0.64453 -4.0469,-0.96875 -6.2344,-0.96875 -3.9062,0 -6.9844,1.2578 -9.2344,3.7656 -2.2422,2.5 -3.3594,5.9531 -3.3594,10.359 0,4.3867 1.1172,7.8359 3.3594,10.344 2.25,2.5 5.3281,3.75 9.2344,3.75 2.1875,0 4.2656,-0.32031 6.2344,-0.96875 1.9766,-0.64453 3.9844,-1.6602 6.0156,-3.0469 z"
         id="path2" />
    </symbol>
    <symbol
       id="b"
       overflow="visible">
      <path
         d="m 16.031,-40.953 v 9.0625 h 10.516 v 7.2812 H 16.031 v 13.531 c 0,1.4805 0.28906,2.4805 0.875,3 0.59375,0.52344 1.7656,0.78125 3.5156,0.78125 h 5.2344 v 7.2969 h -8.7344 c -4.0312,0 -6.8867,-0.83594 -8.5625,-2.5156 -1.6797,-1.6875 -2.5156,-4.5391 -2.5156,-8.5625 v -13.531 H 0.7654 v -7.2812 h 5.0781 v -9.0625 z"
         id="path5" />
    </symbol>
    <symbol
       id="a"
       overflow="visible">
      <path
         d="M 26.594,-27.234 V -44.312 H 36.86 V 0 H 26.594 v -4.6094 c -1.3984,1.875 -2.9453,3.25 -4.6406,4.125 -1.6875,0.875 -3.6406,1.3125 -5.8594,1.3125 -3.9297,0 -7.1562,-1.5625 -9.6875,-4.6875 -2.5234,-3.125 -3.7812,-7.1445 -3.7812,-12.062 0,-4.9141 1.2578,-8.9375 3.7812,-12.062 2.5312,-3.125 5.7578,-4.6875 9.6875,-4.6875 2.1953,0 4.1445,0.44531 5.8438,1.3281 1.707,0.88672 3.2578,2.2578 4.6562,4.1094 z m -6.7188,20.656 c 2.1875,0 3.8516,-0.79688 5,-2.3906 1.1445,-1.5938 1.7188,-3.9102 1.7188,-6.9531 0,-3.0391 -0.57422,-5.3594 -1.7188,-6.9531 -1.1484,-1.5938 -2.8125,-2.3906 -5,-2.3906 -2.168,0 -3.8242,0.79688 -4.9688,2.3906 -1.1484,1.5938 -1.7188,3.9141 -1.7188,6.9531 0,3.043 0.57031,5.3594 1.7188,6.9531 1.1445,1.5938 2.8008,2.3906 4.9688,2.3906 z"
         id="path8" />
    </symbol>
    <symbol
       id="f"
       overflow="visible">
      <path
         d="m 21.875,-6.5781 c 2.1758,0 3.8359,-0.79688 4.9844,-2.3906 1.1562,-1.5938 1.7344,-3.9102 1.7344,-6.9531 0,-3.0391 -0.57812,-5.3594 -1.7344,-6.9531 -1.1484,-1.5938 -2.8086,-2.3906 -4.9844,-2.3906 -2.1875,0 -3.8672,0.80469 -5.0312,2.4062 -1.168,1.6055 -1.75,3.918 -1.75,6.9375 0,3.0234 0.58203,5.3359 1.75,6.9375 1.1641,1.6055 2.8438,2.4062 5.0312,2.4062 z m -6.7812,-20.656 c 1.4062,-1.8516 2.9609,-3.2227 4.6719,-4.1094 1.707,-0.88281 3.6719,-1.3281 5.8906,-1.3281 3.9375,0 7.1641,1.5625 9.6875,4.6875 2.5195,3.125 3.7812,7.1484 3.7812,12.062 0,4.918 -1.2617,8.9375 -3.7812,12.062 -2.5234,3.125 -5.75,4.6875 -9.6875,4.6875 -2.2188,0 -4.1836,-0.44531 -5.8906,-1.3281 -1.7109,-0.88281 -3.2656,-2.2539 -4.6719,-4.1094 V -7e-4 H 4.9058 v -44.312 h 10.188 z"
         id="path11" />
    </symbol>
    <symbol
       id="e"
       overflow="visible">
      <path
         d="m 5.3594,-42.516 h 10.953 v 16.203 h 16.188 v -16.203 h 10.969 V 0 H 32.5004 V -18.031 H 16.3124 V 0 H 5.3594 Z"
         id="path14" />
    </symbol>
    <symbol
       id="d"
       overflow="visible">
      <path
         d="m 4.9062,-31.891 h 10.188 V 0 H 4.9062 Z m 0,-12.422 h 10.188 v 8.3125 H 4.9062 Z"
         id="path17" />
    </symbol>
    <symbol
       id="c"
       overflow="visible">
      <path
         d="m 34.953,-41.188 v 9 c -2.3438,-1.0391 -4.625,-1.8281 -6.8438,-2.3594 -2.2188,-0.5313 -4.3203,-0.79688 -6.2969,-0.79688 -2.6172,0 -4.5547,0.35938 -5.8125,1.0781 -1.25,0.71875 -1.875,1.8398 -1.875,3.3594 0,1.1484 0.42188,2.0391 1.2656,2.6719 0.84375,0.63672 2.3789,1.1836 4.6094,1.6406 l 4.6719,0.9375 c 4.7188,0.94922 8.0703,2.3906 10.062,4.3281 2,1.9375 3,4.6875 3,8.25 0,4.6992 -1.3906,8.1953 -4.1719,10.484 -2.7812,2.2812 -7.0312,3.4219 -12.75,3.4219 -2.6875,0 -5.3906,-0.26172 -8.1094,-0.78125 -2.7188,-0.50781 -5.4336,-1.2656 -8.1406,-2.2656 v -9.2656 c 2.707,1.4492 5.3281,2.5391 7.8594,3.2656 2.5391,0.73047 4.9883,1.0938 7.3438,1.0938 2.3945,0 4.2266,-0.39453 5.5,-1.1875 1.2695,-0.80078 1.9062,-1.9414 1.9062,-3.4219 0,-1.332 -0.43359,-2.3594 -1.2969,-3.0781 -0.86719,-0.71875 -2.5898,-1.3633 -5.1719,-1.9375 l -4.2344,-0.9375 c -4.2617,-0.90625 -7.375,-2.3516 -9.3438,-4.3438 -1.9609,-2 -2.9375,-4.6914 -2.9375,-8.0781 0,-4.2266 1.3633,-7.4844 4.0938,-9.7656 2.7383,-2.2812 6.6719,-3.4219 11.797,-3.4219 2.332,0 4.7344,0.17969 7.2031,0.53125 2.4688,0.35547 5.0234,0.88281 7.6719,1.5781 z"
         id="path20" />
    </symbol>
  </defs>
  <path
     d="m 141.59389,222.97869 c 0,6.4414 -5.2227,11.664 -11.668,11.664 -6.4414,0 -11.664,-5.2227 -11.664,-11.664 0,-6.4453 5.2227,-11.668 11.664,-11.668 6.4453,0 11.668,5.2227 11.668,11.668"
     id="path25" />
  <path
     d="m 374.92389,222.97869 c 0,6.4414 -5.2227,11.664 -11.664,11.664 -6.4453,0 -11.668,-5.2227 -11.668,-11.664 0,-6.4453 5.2227,-11.668 11.668,-11.668 6.4414,0 11.664,5.2227 11.664,11.668"
     id="path27" />
  <path
     d="m 314.49389,351.30869 c -3.6992,10.465 -12.141,18.551 -22.754,21.801 -10.609,3.25 -22.133,1.2695 -31.059,-5.3281 -8.9219,-6.6016 -14.184,-17.043 -14.184,-28.141 0,-11.098 5.2617,-21.539 14.184,-28.137 8.9258,-6.6016 20.449,-8.5781 31.059,-5.3281 10.613,3.2461 19.055,11.336 22.754,21.801 h 163.34 c 10.828,-30.203 15.562,-62.25 13.918,-94.293 -1.6406,-32.043 -9.625,-63.441 -23.484,-92.375 h -258.77 c -3.6992,10.465 -12.141,18.551 -22.754,21.801 -10.609,3.25 -22.133,1.2695 -31.059,-5.3281 -8.9219,-6.6016 -14.184,-17.043 -14.184,-28.141 0,-11.098 5.2617,-21.539 14.184,-28.137 8.9258,-6.601598 20.449,-8.578098 31.059,-5.328098 10.613,3.2461 19.055,11.335998 22.754,21.800998 h 245 c -25.766,-42.499998 -63.852,-76.155998 -109.2,-96.503998 -45.344,-20.3479998 -95.805,-26.4219998 -144.68,-17.4179998 -48.879,9.0038998 -93.863,32.6559998 -128.979999,67.8239998 -35.117,35.167998 -58.711,80.187998 -67.6450003,129.069998 -8.9375,48.891 -2.7891,99.344 17.6210003,144.66 20.406,45.316 54.117,83.352 96.651999,109.06 v -198.33 c -10.465,-3.7031 -18.554999,-12.145 -21.800999,-22.758 -3.25,-10.609 -1.2734,-22.133 5.328099,-31.055 6.5977,-8.9258 17.039,-14.188 28.137,-14.188 11.098,0 21.539,5.2617 28.141,14.188 6.5977,8.9219 8.5781,20.445 5.3281,31.055 -3.25,10.613 -11.336,19.055 -21.801,22.758 v 211.63 c 14.941,7.0859 30.582,12.602 46.668,16.449 v -261.45 c 0,-6.4453 5.2227,-11.668 11.664,-11.668 h 130.43 c 3.6992,-10.465 12.145,-18.551 22.754,-21.801 10.613,-3.25 22.137,-1.2695 31.059,5.3281 8.9219,6.6016 14.188,17.043 14.188,28.141 0,11.098 -5.2656,21.539 -14.188,28.137 -8.9219,6.6016 -20.445,8.5781 -31.059,5.3281 -10.609,-3.2461 -19.055,-11.336 -22.754,-21.801 h -118.77 v 253.87 c 11.586,1.7461 23.281,2.6797 35,2.8008 32.184,0.0664 64.062,-6.2383 93.797,-18.555 29.738,-12.312 56.738,-30.395 79.453,-53.195 19.895,-19.84 36.266,-42.918 48.418,-68.25 z"
     id="path29" />
  <path
     d="m 188.26389,129.63869 c 0,6.4453 -5.2266,11.668 -11.668,11.668 -6.4414,0 -11.668,-5.2227 -11.668,-11.668 0,-6.4414 5.2266,-11.664 11.668,-11.664 6.4414,0 11.668,5.2227 11.668,11.664"
     id="path31" />
  <path
     d="m 293.26389,339.63869 c 0,6.4453 -5.2266,11.668 -11.668,11.668 -6.4414,0 -11.668,-5.2227 -11.668,-11.668 0,-6.4414 5.2266,-11.664 11.668,-11.664 6.4414,0 11.668,5.2227 11.668,11.664"
     id="path33" />
</svg>
