<?xml version="1.0" standalone="no"?>
<!DOCTYPE svg PUBLIC "-//W3C//DTD SVG 20010904//EN"
 "http://www.w3.org/TR/2001/REC-SVG-20010904/DTD/svg10.dtd">
<svg version="1.0" xmlns="http://www.w3.org/2000/svg"
 width="656.000000pt" height="656.000000pt" viewBox="0 0 656.000000 656.000000"
 preserveAspectRatio="xMidYMid meet">
<metadata>
Created by potrace 1.14, written by Peter Selinger 2001-2017
</metadata>
<g transform="translate(0.000000,656.000000) scale(0.100000,-0.100000)"
fill="#000000" stroke="none">
<path d="M3048 6545 c-1 -1 -37 -6 -78 -9 -109 -10 -143 -15 -265 -36 -135
-24 -135 -24 -215 -45 -36 -9 -72 -18 -80 -20 -196 -43 -584 -206 -794 -334
-38 -23 -71 -41 -75 -41 -4 0 -16 -8 -27 -19 -11 -10 -31 -24 -45 -31 -30 -16
-265 -193 -334 -251 -27 -23 -111 -103 -186 -178 -441 -444 -736 -984 -873
-1601 -14 -63 -28 -133 -31 -155 -6 -53 -17 -125 -21 -150 -25 -137 -25 -644
0 -780 2 -11 7 -47 12 -80 4 -33 8 -62 9 -65 0 -3 4 -27 9 -53 43 -269 180
-666 319 -927 280 -525 695 -973 1168 -1258 l35 -21 0 1320 -1 1320 -53 27
c-111 57 -188 145 -229 263 -92 265 72 552 347 608 277 56 538 -145 555 -428
7 -118 -25 -224 -93 -309 -63 -79 -99 -106 -210 -158 -7 -4 -2 -2818 5 -2825
28 -26 377 -156 520 -193 34 -9 69 -19 78 -22 13 -6 15 177 15 1748 0 1285 3
1764 11 1789 13 37 50 76 89 91 15 6 360 10 901 10 482 0 881 3 886 7 5 3 23
30 39 60 107 200 346 292 563 218 147 -51 268 -190 302 -349 10 -44 8 -156 -3
-198 -47 -176 -184 -311 -357 -349 -41 -9 -165 -8 -201 1 -136 36 -254 130
-314 249 l-25 51 -778 0 c-428 -1 -784 -1 -791 -1 -10 -1 -12 -343 -10 -1693
3 -1579 4 -1691 20 -1694 161 -23 249 -29 463 -29 178 0 284 6 395 20 19 3 53
7 75 10 73 10 289 56 380 81 856 241 1556 794 1998 1579 31 55 63 116 71 136
l15 35 -1021 0 c-1006 -1 -1021 -1 -1032 -21 -72 -128 -109 -170 -192 -220
-258 -156 -588 -33 -683 253 -39 115 -30 234 26 349 32 64 122 173 143 173 5
0 16 7 25 16 9 9 52 29 96 44 67 23 94 28 162 25 126 -4 244 -54 324 -137 28
-29 96 -133 106 -161 4 -12 2165 -13 2177 -1 19 20 117 370 135 484 3 19 10
60 15 90 27 166 35 277 35 510 0 183 -8 349 -20 405 -2 11 -6 38 -9 60 -8 60
-23 141 -41 225 -9 41 -18 83 -20 93 -2 10 -9 32 -14 50 -82 260 -110 340
-154 442 l-53 120 -1724 0 -1725 0 -30 -58 c-59 -116 -194 -218 -325 -244
-103 -21 -246 7 -340 67 -248 158 -284 515 -74 723 91 89 211 136 339 132 123
-3 246 -57 327 -142 24 -25 92 -131 101 -156 4 -13 3257 -16 3257 -3 0 16
-145 227 -227 331 -129 163 -338 376 -478 488 -11 9 -45 36 -75 60 -310 248
-753 468 -1160 575 -289 77 -490 103 -817 107 -133 2 -243 2 -245 0z"/>
<path d="M2315 4972 c-59 -13 -115 -87 -115 -153 0 -164 237 -207 296 -53 45
118 -57 234 -181 206z"/>
<path d="M1652 3711 c-124 -79 -79 -273 68 -287 97 -9 182 84 164 180 -7 39
-17 56 -53 90 -42 40 -129 48 -179 17z"/>
<path d="M4759 3706 c-94 -64 -89 -209 10 -264 58 -32 144 -19 187 29 69 77
43 206 -49 247 -46 20 -108 15 -148 -12z"/>
<path d="M3706 2169 c-94 -27 -135 -151 -79 -234 72 -106 233 -81 273 41 39
116 -74 228 -194 193z"/>
</g>
</svg>
